<svg xmlns="http://www.w3.org/2000/svg" viewBox="0 0 24 24">
  <path fill="#ffffff" d="M12 .5A12 12 0 0 0 0 12.7c0 5.4 3.4 10 8.2 11.6.6.1.8-.3.8-.6v-2.2c-3.3.7-4-1.6-4-1.6-.6-1.5-1.5-1.9-1.5-1.9-1.2-.8.1-.8.1-.8 1.3.1 2 .1 2.9 2 .9 1.9 2.5 1.4 3.1 1.1.1-.7.4-1.4.7-1.7-2.6-.3-5.3-1.3-5.3-5.9 0-1.3.5-2.5 1.3-3.4-.1-.3-.6-1.6.1-3.3 0 0 1.1-.4 3.5 1.3a11.8 11.8 0 0 1 6.2 0c2.4-1.7 3.5-1.3 3.5-1.3.7 1.7.2 3 .1 3.3a5 5 0 0 1 1.3 3.4c0 4.6-2.7 5.6-5.3 5.9.4.4.8 1.1.8 2.3v3.5c0 .3.2.7.8.6 4.8-1.6 8.2-6.2 8.2-11.6A12 12 0 0 0 12 .5z"/>
</svg>