<svg xmlns="http://www.w3.org/2000/svg" viewBox="0 0 48 48">
  <path fill="#FFC107" d="M43.6 20.5H42V20H24v8h11.3C33.8 32.6 29.4 36 24 36c-6.6 0-12-5.4-12-12s5.4-12 12-12c3 0 5.7 1.1 7.7 3l5.7-5.7C33.6 6 29.1 4 24 4 16 4 9.1 8.4 6.3 14.7z"/>
  <path fill="#FF3D00" d="M6.3 14.7l6.6 4.8C14.6 16 18.9 12 24 12c3 0 5.7 1.1 7.7 3l5.7-5.7C33.6 6 29.1 4 24 4 16 4 9.1 8.4 6.3 14.7z"/>
  <path fill="#4CAF50" d="M24 44c5.2 0 9.9-2 13.4-5.2l-6.2-5.1C29.4 36 27 37 24 37c-5.3 0-9.7-3.4-11.3-8.1l-6.6 5.1C8.9 39.6 15.9 44 24 44z"/>
  <path fill="#1976D2" d="M43.6 20.5H42V20H24v8h11.3c-1 2.8-3.1 5.2-5.9 6.6l.1.1 6.2 5.1C37.3 41.1 44 36 44 24c0-1.2-.1-2.3-.4-3.5z"/>
</svg>